<?xml version="1.0" encoding="UTF-8"?>
<svg version="1.1" xmlns="http://www.w3.org/2000/svg" width="341" height="256">
<path d="M0 0 C112.53 0 225.06 0 341 0 C341 84.48 341 168.96 341 256 C228.47 256 115.94 256 0 256 C0 171.52 0 87.04 0 0 Z " fill="#FDFDFD" transform="translate(0,0)"/>
<path d="M0 0 C2.45677917 1.25357297 4.60498589 2.47980955 6.875 4 C7.46796875 4.3815625 8.0609375 4.763125 8.671875 5.15625 C10.12244056 6.09209875 11.56235847 7.04441631 13 8 C12.125 12.875 12.125 12.875 11 14 C6.18064558 14.43812313 4.04756523 13.42853914 0 11 C-10.30768789 10.15204818 -20.9445418 16.65255627 -28.64306641 23.01220703 C-34.79405893 30.80958081 -32.83309555 42.20185685 -31.87890625 51.52734375 C-31.60290612 53.68713208 -31.31659532 55.84578806 -31 58 C-27.95165769 56.81006048 -25.23854148 55.60159432 -22.5 53.8125 C-19 52 -19 52 -16.1875 52.125 C-14 53 -14 53 -12 55 C-11.9375 57.375 -11.9375 57.375 -13 60 C-15.23879409 61.66570565 -17.47500018 62.76045463 -20 64 C-16.75883549 66.90587163 -13.25389287 69.1391936 -9.5 71.3125 C-8.12328125 72.11107422 -8.12328125 72.11107422 -6.71875 72.92578125 C-3.45093001 74.21694576 -2.28887387 74.17424241 1 73 C3.34255628 71.70102096 5.56896952 70.38566516 7.8125 68.9375 C8.40998047 68.56044922 9.00746094 68.18339844 9.62304688 67.79492188 C11.08636577 66.87010434 12.54379523 65.93597935 14 65 C13.33484375 64.39671875 12.6696875 63.7934375 11.984375 63.171875 C11.32953125 62.45515625 10.6746875 61.7384375 10 61 C10.25 58.25 10.25 58.25 11 56 C16.50477588 54.78894931 19.14788499 55.1790029 24 58 C24.66 58 25.32 58 26 58 C26.33 47.77 26.66 37.54 27 27 C23.04 28.98 19.08 30.96 15 33 C14.84001111 35.97579334 14.69170152 38.95863984 14.77734375 41.9375 C13.77105961 45.90195611 12.17967515 46.92767716 8.83520508 49.09838867 C7.80302856 49.69937378 7.80302856 49.69937378 6.75 50.3125 C6.08057373 50.70348877 5.41114746 51.09447754 4.72143555 51.49731445 C1.8183824 53.03640701 -0.24220038 54.01851114 -3.55859375 53.9375 C-9.32760841 51.72219837 -14.48262457 49.22530374 -19 45 C-20.10852631 40.79683773 -19.82662392 37.23909703 -19 33 C-5.66806147 24.39379184 -5.66806147 24.39379184 0.0625 25 C7.05262915 25.71991363 12.53387097 20.81785731 18 17 C21.5998414 14.60010573 22.75098128 14.35863868 27 15 C30.48343039 17.07985038 34.15348666 19.30697332 36 23 C36.13560372 25.78558087 36.21271215 28.54492918 36.23828125 31.33203125 C36.246353 32.16079269 36.25442474 32.98955414 36.26274109 33.84342957 C36.27658221 35.59945585 36.28730424 37.35550904 36.29516602 39.11157227 C36.31236651 41.79170009 36.35624926 44.47059028 36.40039062 47.15039062 C36.41051879 48.85676176 36.41903451 50.56314339 36.42578125 52.26953125 C36.44328934 53.06865433 36.46079742 53.8677774 36.47883606 54.69111633 C36.46410511 58.48746801 36.28281802 60.5276109 34.29467773 63.84838867 C31.92260196 66.0725725 29.71105666 67.60003774 26.859375 69.15625 C25.37630859 69.97802734 25.37630859 69.97802734 23.86328125 70.81640625 C22.32220703 71.64978516 22.32220703 71.64978516 20.75 72.5 C18.72303115 73.61289627 16.69697208 74.72745135 14.671875 75.84375 C13.69927734 76.37355469 12.72667969 76.90335937 11.72460938 77.44921875 C9.29147392 78.83410015 7.01117186 80.32600576 4.703125 81.90625 C0.97802601 84.23819923 -1.55939414 84.74091877 -6 84 C-9.01816746 82.77967117 -11.7656197 81.22125585 -14.5625 79.5625 C-15.73135742 78.89057617 -15.73135742 78.89057617 -16.92382812 78.20507812 C-35.68275778 67.31724222 -35.68275778 67.31724222 -40 63 C-40.30107117 61.2053833 -40.30107117 61.2053833 -40.36987305 59.01269531 C-40.39877121 58.19134094 -40.42766937 57.36998657 -40.45744324 56.52374268 C-40.47535416 55.63418884 -40.49326508 54.74463501 -40.51171875 53.828125 C-40.53023392 52.91295105 -40.54874908 51.9977771 -40.56782532 51.05487061 C-40.59990243 49.11479886 -40.62553408 47.1746116 -40.64526367 45.234375 C-40.67332523 43.25157425 -40.72104776 41.26895029 -40.78881836 39.28710938 C-41.34432052 22.99962313 -41.34432052 22.99962313 -38.39379883 18.61083984 C-36.00800181 17.0007461 -33.67954781 16.04701155 -31 15 C-28.93471246 13.74276571 -26.89006521 12.45121968 -24.86328125 11.1328125 C-22.68118735 9.79442658 -20.49756809 8.4585247 -18.3125 7.125 C-17.21099609 6.43664062 -16.10949219 5.74828125 -14.97460938 5.0390625 C-13.90662109 4.389375 -12.83863281 3.7396875 -11.73828125 3.0703125 C-10.77962158 2.48008301 -9.82096191 1.88985352 -8.83325195 1.28173828 C-5.59207686 -0.18454084 -3.52026228 -0.37137759 0 0 Z " fill="#3D7DC3" transform="translate(176,63)"/>
<path d="M0 0 C3.48343039 2.07985038 7.15348666 4.30697332 9 8 C9.08691001 10.84429357 9.11553802 13.66379176 9.09765625 16.5078125 C9.0962413 17.34843231 9.09482635 18.18905212 9.09336853 19.05514526 C9.08776237 21.74513275 9.07520886 24.43503759 9.0625 27.125 C9.05748579 28.94661338 9.05292275 30.76822807 9.04882812 32.58984375 C9.03779094 37.05992777 9.0205222 41.52994986 9 46 C6.35261084 47.4606285 5.10551666 48 2 48 C1.22199319 43.20004797 0.88148335 38.61437936 0.90234375 33.75390625 C0.9037587 33.09792953 0.90517365 32.44195282 0.90663147 31.76609802 C0.91216969 29.69818298 0.92470998 27.63038158 0.9375 25.5625 C0.94252301 24.14909012 0.9470845 22.73567852 0.95117188 21.32226562 C0.96211874 17.88147432 0.97933962 14.44074828 1 11 C-0.32 11 -1.64 11 -3 11 C-3 11.66 -3 12.32 -3 13 C-3.63808594 13.22171875 -4.27617187 13.4434375 -4.93359375 13.671875 C-7.71683659 14.87027597 -9.77483965 15.92606414 -12 18 C-12.37304086 20.74577923 -12.37304086 20.74577923 -12.125 23.75 C-12.11708672 26.94300965 -12.11334697 29.08395687 -14.39941406 31.44580078 C-16.28656357 32.88604784 -18.19930806 34.11686519 -20.25 35.3125 C-20.91918457 35.7034082 -21.58836914 36.09431641 -22.27783203 36.49707031 C-25.18120124 38.03611987 -27.2419332 39.01851766 -30.55859375 38.9375 C-36.32760841 36.72219837 -41.48262457 34.22530374 -46 30 C-47.10852631 25.79683773 -46.82662392 22.23909703 -46 18 C-32.66806147 9.39379184 -32.66806147 9.39379184 -26.9375 10 C-19.94737085 10.71991363 -14.46612903 5.81785731 -9 2 C-5.4001586 -0.39989427 -4.24901872 -0.64136132 0 0 Z " fill="#2EC5C9" transform="translate(203,78)"/>
<path d="M0 0 C2.31 0 4.62 0 7 0 C10.44419134 10.37357631 10.44419134 10.37357631 10 16 C10.66 16 11.32 16 12 16 C12.04898437 15.43152344 12.09796875 14.86304688 12.1484375 14.27734375 C12.63143081 9.28918871 13.47638163 4.77400422 15 0 C17.97 0 20.94 0 24 0 C24.50806447 1.72681437 25.00610467 3.45657979 25.5 5.1875 C25.7784375 6.15042969 26.056875 7.11335937 26.34375 8.10546875 C26.96677608 10.85345876 27.12302812 13.19598416 27 16 C27.66 16 28.32 16 29 16 C29.04898437 15.34773437 29.09796875 14.69546875 29.1484375 14.0234375 C29.57242229 9.06720147 30.15665573 4.66980549 32 0 C34.31 0 36.62 0 39 0 C37.32234985 8.54076441 34.65997819 16.72564036 32 25 C29.36 25 26.72 25 24 25 C22.68 19.72 21.36 14.44 20 9 C18.20394692 14.30652047 16.49339638 19.6007977 15 25 C12.36 25 9.72 25 7 25 C5.82882795 21.20970992 4.66382785 17.41755098 3.5 13.625 C3.16613281 12.54476562 2.83226562 11.46453125 2.48828125 10.3515625 C2.17246094 9.3203125 1.85664063 8.2890625 1.53125 7.2265625 C1.23798828 6.27346191 0.94472656 5.32036133 0.64257812 4.33837891 C0 2 0 2 0 0 Z " fill="#4FC5BD" transform="translate(269,172)"/>
<path d="M0 0 C3.17852316 1.64448689 5.37801764 3.75603527 7 7 C7.5880376 12.14112877 8.17453731 17.31516132 4.8125 21.5625 C1.54263668 24.39638154 -0.52316509 25.96468871 -4.91796875 26.02734375 C-9.70744906 25.67689397 -12.56696335 24.53400831 -16 21 C-18.690017 16.54198597 -18.80645988 12.07031705 -18 7 C-13.94399942 -0.52395647 -7.85331261 -1.01761234 0 0 Z " fill="#4AC3BC" transform="translate(259,172)"/>
<path d="M0 0 C1.32 0 2.64 0 4 0 C4.33 12.21 4.66 24.42 5 37 C6.32 36.34 7.64 35.68 9 35 C9.6993514 32.81458448 9.6993514 32.81458448 9.75 30.375 C9.83507812 29.14910156 9.83507812 29.14910156 9.921875 27.8984375 C9.96054688 26.95871094 9.96054688 26.95871094 10 26 C10.33 26 10.66 26 11 26 C11.1363128 27.56002428 11.23259126 29.12357176 11.3125 30.6875 C11.37050781 31.55761719 11.42851562 32.42773438 11.48828125 33.32421875 C10.79229526 37.13822195 8.85452094 38.43095562 6 41 C4.02059801 42.30258816 1.99301307 43.53411972 -0.0703125 44.69921875 C-1.21371094 45.35083984 -2.35710937 46.00246094 -3.53515625 46.67382812 C-4.73160918 47.34534019 -5.92822545 48.0165613 -7.125 48.6875 C-8.32986348 49.36967251 -9.53429477 50.05260895 -10.73828125 50.73632812 C-12.9405474 51.98676738 -15.14491936 53.23351032 -17.35205078 54.4753418 C-19.27521009 55.58267444 -21.15353673 56.76902449 -23 58 C-25.33199388 58.07905064 -27.66832622 58.08798769 -30 58 C-30.33 56.68 -30.66 55.36 -31 54 C-32.32 54 -33.64 54 -35 54 C-35 53.34 -35 52.68 -35 52 C-35.66 51.67 -36.32 51.34 -37 51 C-35.515 50.505 -35.515 50.505 -34 50 C-34 49.34 -34 48.68 -34 48 C-33.26394531 48.13019531 -32.52789062 48.26039063 -31.76953125 48.39453125 C-28.79230864 48.815354 -26.00702153 49.09824076 -23 49 C-20.18802581 46.93854074 -20.18802581 46.93854074 -18 44 C-15.41627804 42.19139463 -12.72370463 40.58826449 -10 39 C-10.680625 38.443125 -11.36125 37.88625 -12.0625 37.3125 C-12.701875 36.549375 -13.34125 35.78625 -14 35 C-13.75 32.25 -13.75 32.25 -13 30 C-7.49522412 28.78894931 -4.85211501 29.1790029 0 32 C0.66 32 1.32 32 2 32 C2.33 21.77 2.66 11.54 3 1 C2.01 0.67 1.02 0.34 0 0 Z " fill="#3991C6" transform="translate(200,89)"/>
<path d="M0 0 C3.00197464 1.80118478 4.45166366 2.90332732 6 6 C6.08342159 7.44848582 6.10732861 8.90070869 6.09765625 10.3515625 C6.09443359 11.20234375 6.09121094 12.053125 6.08789062 12.9296875 C6.07951172 13.81914062 6.07113281 14.70859375 6.0625 15.625 C6.05798828 16.5221875 6.05347656 17.419375 6.04882812 18.34375 C6.03702591 20.56256648 6.02056155 22.78125018 6 25 C4.02 25 2.04 25 0 25 C-0.33 24.01 -0.66 23.02 -1 22 C-1.39316406 22.4846875 -1.78632813 22.969375 -2.19140625 23.46875 C-5.11611634 25.94496243 -7.91843318 25.53124146 -11.61328125 25.41796875 C-14 25 -14 25 -16.625 22.8125 C-18.82706767 18.30827068 -18.82706767 18.30827068 -18 15 C-15.16399527 11.55080506 -13.62417946 10.17823643 -9.15234375 9.6875 C-6.41705876 9.6875 -3.72598438 9.78172723 -1 10 C-1.66 8.68 -2.32 7.36 -3 6 C-7.34184202 6.18464366 -7.34184202 6.18464366 -11 8 C-12.99958364 8.04080783 -15.00045254 8.04254356 -17 8 C-16.69895795 5.19027419 -15.95275592 3.94330711 -14.125 1.75 C-9.49634494 -0.84204683 -5.19070706 -0.79497315 0 0 Z " fill="#384141" transform="translate(139,172)"/>
<path d="M0 0 C3.27060012 1.63530006 5.22381741 2.9415692 7.375 5.875 C8 8 8 8 8 14 C1.73 14 -4.54 14 -11 14 C-10.34 15.32 -9.68 16.64 -9 18 C-5.53462587 18.99510849 -5.53462587 18.99510849 -2 19 C-1.34 18.34 -0.68 17.68 0 17 C3.625 16.875 3.625 16.875 7 17 C5.07782846 20.55601735 3.44525093 22.86051143 0 25 C-4.06541625 25.80503292 -8.23956421 25.95254041 -11.94921875 23.9453125 C-14.97812564 21.46644924 -16.82589855 19.52214407 -17.2734375 15.609375 C-17.58136511 6.94002851 -17.58136511 6.94002851 -14.625 3.375 C-10.0664607 -0.7493927 -5.9695273 -0.66836732 0 0 Z " fill="#333D3D" transform="translate(79,172)"/>
<path d="M0 0 C2.45677917 1.25357297 4.60498589 2.47980955 6.875 4 C7.46796875 4.3815625 8.0609375 4.763125 8.671875 5.15625 C10.12244056 6.09209875 11.56235847 7.04441631 13 8 C12.125 12.875 12.125 12.875 11 14 C6.18064558 14.43812313 4.04756523 13.42853914 0 11 C-4.87238218 10.50470475 -7.5140646 11.48075975 -11.6171875 14.0625 C-13.14472656 15.00996094 -13.14472656 15.00996094 -14.703125 15.9765625 C-15.74984375 16.64429687 -16.7965625 17.31203125 -17.875 18 C-18.94492188 18.66773437 -20.01484375 19.33546875 -21.1171875 20.0234375 C-23.75251145 21.67051497 -26.37945187 23.3295513 -29 25 C-29.66 23.68 -30.32 22.36 -31 21 C-30.01 20.67 -29.02 20.34 -28 20 C-28 19.01 -28 18.02 -28 17 C-28.53109375 17.26554687 -29.0621875 17.53109375 -29.609375 17.8046875 C-34.8046875 20.40234375 -34.8046875 20.40234375 -40 23 C-38.49614239 18.8547223 -36.09556827 17.57590471 -32.328125 15.46875 C-31.18859375 14.82292969 -30.0490625 14.17710938 -28.875 13.51171875 C-27.66692738 12.84067625 -26.45859174 12.17010706 -25.25 11.5 C-22.89889743 10.18085532 -20.55110595 8.85595547 -18.203125 7.53125 C-17.15801758 6.94923828 -16.11291016 6.36722656 -15.03613281 5.76757812 C-11.92451492 4.00500084 -11.92451492 4.00500084 -8.79638672 1.81054688 C-5.42623152 -0.3714918 -3.94393072 -0.64555388 0 0 Z " fill="#3E8FC4" transform="translate(176,63)"/>
<path d="M0 0 C7.59 0 15.18 0 23 0 C23 1.98 23 3.96 23 6 C17.72 6 12.44 6 7 6 C7 8.97 7 11.94 7 15 C10.96 15 14.92 15 19 15 C19 16.98 19 18.96 19 21 C14.71 21 10.42 21 6 21 C6 25.95 6 30.9 6 36 C4.02 36 2.04 36 0 36 C0 24.12 0 12.24 0 0 Z " fill="#49C3BB" transform="translate(202,161)"/>
<path d="M0 0 C2.475 0.99 2.475 0.99 5 2 C5.33 1.34 5.66 0.68 6 0 C6.45890625 0.3609375 6.9178125 0.721875 7.390625 1.09375 C8.00421875 1.5578125 8.6178125 2.021875 9.25 2.5 C9.85328125 2.9640625 10.4565625 3.428125 11.078125 3.90625 C13.21085595 5.32974419 13.21085595 5.32974419 17 5 C18.49552189 4.574619 19.97560477 4.09202531 21.4375 3.5625 C24.61155862 2.45210326 27.66959125 1.5371627 31 1 C31.55667908 4.47752612 31.76449629 7.54427016 31 11 C28.3709844 13.72451403 25.34585387 15.2847562 22 17 C21.0925 17.639375 20.185 18.27875 19.25 18.9375 C16.29340288 20.33367086 15.12291777 19.90187712 12 19 C9.140625 17.40625 9.140625 17.40625 6.25 15.5 C5.28578125 14.8709375 4.3215625 14.241875 3.328125 13.59375 C1 12 1 12 0 11 C-0.07226502 9.14712498 -0.0838122 7.29166122 -0.0625 5.4375 C-0.05347656 4.42558594 -0.04445312 3.41367188 -0.03515625 2.37109375 C-0.02355469 1.58863281 -0.01195312 0.80617188 0 0 Z " fill="#32A7C7" transform="translate(158,97)"/>
<path d="M0 0 C8.91 0 17.82 0 27 0 C27 1.98 27 3.96 27 6 C23.7 6 20.4 6 17 6 C17 15.9 17 25.8 17 36 C14.69 36 12.38 36 10 36 C10 26.1 10 16.2 10 6 C6.7 6 3.4 6 0 6 C0 4.02 0 2.04 0 0 Z " fill="#3E4747" transform="translate(31,161)"/>
<path d="M0 0 C1.98 0 3.96 0 6 0 C6.33 0.66 6.66 1.32 7 2 C7.99 1.34 8.98 0.68 10 0 C12.0859375 -0.40625 12.0859375 -0.40625 14.375 -0.5 C15.50035156 -0.57734375 15.50035156 -0.57734375 16.6484375 -0.65625 C19.60212589 0.16803513 21.17986771 1.64173145 23.02734375 4.06152344 C24.91713025 7.8278148 24.51394827 11.75925694 24.3125 15.875 C24.28994141 16.75414062 24.26738281 17.63328125 24.24414062 18.5390625 C24.18559748 20.69345007 24.09592783 22.8469531 24 25 C22.02 25 20.04 25 18 25 C17.96261719 23.87980469 17.92523438 22.75960937 17.88671875 21.60546875 C17.82105743 20.1327791 17.75461014 18.66012434 17.6875 17.1875 C17.66494141 16.44951172 17.64238281 15.71152344 17.61914062 14.95117188 C17.419967 10.72783281 17.419967 10.72783281 15.65234375 6.97265625 C13.8682674 5.7094603 13.8682674 5.7094603 10.875 6.25 C8.12209159 6.70933524 8.12209159 6.70933524 7 8 C6.76298761 10.85877909 6.57780818 13.69883297 6.4375 16.5625 C6.39431641 17.36880859 6.35113281 18.17511719 6.30664062 19.00585938 C6.20024738 21.00368805 6.09959112 23.0018207 6 25 C4.02 25 2.04 25 0 25 C0 16.75 0 8.5 0 0 Z " fill="#353F3F" transform="translate(151,172)"/>
<path d="M0 0 C1.98 0 3.96 0 6 0 C6.33 0.66 6.66 1.32 7 2 C7.99 1.34 8.98 0.68 10 0 C12.0859375 -0.37109375 12.0859375 -0.37109375 14.375 -0.4375 C15.50035156 -0.49744141 15.50035156 -0.49744141 16.6484375 -0.55859375 C20.42824804 0.33926822 21.74969307 1.85508769 24 5 C24.59747088 8.46170783 24.47325277 11.81303576 24.3125 15.3125 C24.28994141 16.24384766 24.26738281 17.17519531 24.24414062 18.13476562 C24.18542078 20.4248396 24.10336858 22.71157875 24 25 C22.02 25 20.04 25 18 25 C17.95101562 23.79601562 17.90203125 22.59203125 17.8515625 21.3515625 C17.77653657 19.77601802 17.70098867 18.20049834 17.625 16.625 C17.5940625 15.8309375 17.563125 15.036875 17.53125 14.21875 C17.48183579 9.63332625 17.48183579 9.63332625 15 6 C11.43407381 6.16417032 11.43407381 6.16417032 8 7 C6.414131 10.171738 6.62133555 13.63513822 6.4375 17.125 C6.39431641 17.87910156 6.35113281 18.63320312 6.30664062 19.41015625 C6.2005168 21.27321888 6.09974999 23.13658524 6 25 C4.02 25 2.04 25 0 25 C0 16.75 0 8.5 0 0 Z " fill="#333D3D" transform="translate(92,172)"/>
<path d="M0 0 C1.98 0 3.96 0 6 0 C6 2.31 6 4.62 6 7 C7.98 7 9.96 7 12 7 C12 8.98 12 10.96 12 13 C10.02 13 8.04 13 6 13 C6 17.29 6 21.58 6 26 C7.98 26 9.96 26 12 26 C12 27.98 12 29.96 12 32 C4.67973856 32.36601307 4.67973856 32.36601307 1.5625 30.6875 C-1.5701832 27.30420214 -1.10579575 23.68537076 -1.0625 19.3125 C-1.05347656 18.13300781 -1.04445312 16.95351562 -1.03515625 15.73828125 C-1.02355469 14.83464844 -1.01195312 13.93101562 -1 13 C-2.32 13 -3.64 13 -5 13 C-5 11.02 -5 9.04 -5 7 C-3.35 7 -1.7 7 0 7 C0 4.69 0 2.38 0 0 Z " fill="#3B4444" transform="translate(184,165)"/>
<path d="M0 0 C2.31 0 4.62 0 7 0 C7 12.21 7 24.42 7 37 C4.69 37 2.38 37 0 37 C0 24.79 0 12.58 0 0 Z " fill="#4DC4BD" transform="translate(229,160)"/>
<path d="M0 0 C5.35877502 -0.52121824 8.5450392 1.10029774 12.875 4 C13.46796875 4.3815625 14.0609375 4.763125 14.671875 5.15625 C16.12244056 6.09209875 17.56235847 7.04441631 19 8 C18.125 12.875 18.125 12.875 17 14 C12.18227429 14.43797506 10.02426385 13.49121096 6 11 C4.59228717 10.6306761 3.17429757 10.2990518 1.75 10 C0.5125 9.67 -0.725 9.34 -2 9 C-3 6 -3 6 -1.5625 2.8125 C-1.046875 1.884375 -0.53125 0.95625 0 0 Z " fill="#36A7C5" transform="translate(170,63)"/>
<path d="M0 0 C0.66 0 1.32 0 2 0 C3.7362753 9.19123512 3.51123886 18.78144293 2 28 C1.34 28.66 0.68 29.32 0 30 C-0.99 30 -1.98 30 -3 30 C-3.90483637 24.63510405 -4.12303662 19.49682543 -4.0625 14.0625 C-4.05798828 13.28326172 -4.05347656 12.50402344 -4.04882812 11.70117188 C-4.03716908 9.80074732 -4.01923877 7.90036294 -4 6 C-3.01 6.495 -3.01 6.495 -2 7 C-1.34 4.69 -0.68 2.38 0 0 Z " fill="#28A9C9" transform="translate(208,96)"/>
<path d="M0 0 C11.77045379 5.37098377 11.77045379 5.37098377 15 10 C15.39234478 12.80395736 15.24180478 15.14670361 15 18 C9.5068757 18.44538846 6.41006252 16.42774501 2.05078125 13.2890625 C-0.51923169 10.42043854 -0.64958053 8.86756529 -0.625 5.0625 C-0.46551538 3.36968469 -0.27312981 1.67823095 0 0 Z " fill="#3B80C2" transform="translate(158,97)"/>
<path d="M0 0 C0.96421875 0.55429688 1.9284375 1.10859375 2.921875 1.6796875 C4.19788361 2.41151597 5.47392712 3.1432836 6.75 3.875 C7.70132813 4.42220703 7.70132813 4.42220703 8.671875 4.98046875 C10.44318556 5.99528209 12.22139522 6.99802582 14 8 C14.7425 8.4228125 15.485 8.845625 16.25 9.28125 C18.96317061 10.39558793 21.21407063 9.63316577 24 9 C23.67 9.99 23.34 10.98 23 12 C18.78121808 12.19622241 15.82989106 11.80230168 12 10 C12.33 10.99 12.66 11.98 13 13 C12.01 13.495 12.01 13.495 11 14 C11 14.66 11 15.32 11 16 C12.32 16 13.64 16 15 16 C15.33 16.99 15.66 17.98 16 19 C11.23448987 17.62394084 7.2751447 15.53221934 3.125 12.875 C2.53203125 12.50246094 1.9390625 12.12992188 1.328125 11.74609375 C-0.1181343 10.83635 -1.55958046 9.91896202 -3 9 C-2.690625 8.443125 -2.38125 7.88625 -2.0625 7.3125 C-0.94238179 4.87459567 -0.43962636 2.63775814 0 0 Z " fill="#498AC2" transform="translate(154,127)"/>
<path d="M0 0 C1.32 0 2.64 0 4 0 C4.495 18.315 4.495 18.315 5 37 C6.32 36.34 7.64 35.68 9 35 C9.6993514 32.81458448 9.6993514 32.81458448 9.75 30.375 C9.80671875 29.55773437 9.8634375 28.74046875 9.921875 27.8984375 C9.94765625 27.27195312 9.9734375 26.64546875 10 26 C10.33 26 10.66 26 11 26 C11.77628032 34.88409704 11.77628032 34.88409704 9 38.875 C5.49409065 41.35835245 1.91955748 43.25905511 -2 45 C-2 44.01 -2 43.02 -2 42 C-0.68 42 0.64 42 2 42 C2 40.68 2 39.36 2 38 C1.34 37.34 0.68 36.68 0 36 C0.99 36 1.98 36 3 36 C3 35.34 3 34.68 3 34 C1.63875 33.814375 1.63875 33.814375 0.25 33.625 C-2.62571885 33.07197714 -4.44951366 32.31921707 -7 31 C-7.99 31 -8.98 31 -10 31 C-9.7834375 31.8353125 -9.7834375 31.8353125 -9.5625 32.6875 C-8.97230872 35.11384195 -8.476571 37.54906345 -8 40 C-8.99 40 -9.98 40 -11 40 C-10.67 39.34 -10.34 38.68 -10 38 C-11.32 37.01 -12.64 36.02 -14 35 C-13.67 33.35 -13.34 31.7 -13 30 C-7.49522412 28.78894931 -4.85211501 29.1790029 0 32 C0.66 32 1.32 32 2 32 C2.33 21.77 2.66 11.54 3 1 C2.01 0.67 1.02 0.34 0 0 Z " fill="#45AAC4" transform="translate(200,89)"/>
<path d="M0 0 C1.8125 1.1875 1.8125 1.1875 3 3 C3.60839155 6.99800164 3.33251303 8.52201252 1 11.875 C0.34 12.57625 -0.32 13.2775 -1 14 C-3.875 13.6875 -3.875 13.6875 -7 13 C-9.5144434 9.2283349 -9.74635932 6.43208435 -9 2 C-6.22677943 -1.38949181 -4.00593654 -1.4380285 0 0 Z " fill="#F4F9FA" transform="translate(257,178)"/>
<path d="M0 0 C0.66 0.33 1.32 0.66 2 1 C1.96334229 2.24612061 1.92668457 3.49224121 1.88891602 4.77612305 C1.76205298 9.40694883 1.68179691 14.03762176 1.61547852 18.66967773 C1.58031204 20.67287029 1.53256854 22.67588363 1.47192383 24.6784668 C1.38683287 27.56083357 1.3472755 30.44082373 1.31640625 33.32421875 C1.26221275 34.66355721 1.26221275 34.66355721 1.20692444 36.029953 C1.14074857 40.81372312 1.14074857 40.81372312 3.60494995 44.71035767 C5.72720336 46.29727792 5.72720336 46.29727792 9 48 C6 49 6 49 2.875 47.6875 C0 46 0 46 -1 44 C-1.09414571 42.61637931 -1.12793592 41.22837194 -1.12939453 39.84155273 C-1.13254669 38.98403915 -1.13569885 38.12652557 -1.13894653 37.24302673 C-1.1369223 36.31591385 -1.13489807 35.38880096 -1.1328125 34.43359375 C-1.13376923 33.48436539 -1.13472595 32.53513702 -1.13571167 31.55714417 C-1.1363928 29.548919 -1.13454319 27.54069165 -1.13037109 25.5324707 C-1.12501601 22.44672745 -1.1303214 19.36112937 -1.13671875 16.27539062 C-1.13605807 14.32812468 -1.13477713 12.38085882 -1.1328125 10.43359375 C-1.13483673 9.50445663 -1.13686096 8.57531952 -1.13894653 7.61802673 C-1.13579437 6.76366531 -1.13264221 5.90930389 -1.12939453 5.02905273 C-1.12820114 3.89559669 -1.12820114 3.89559669 -1.12698364 2.73924255 C-1 1 -1 1 0 0 Z " fill="#CCE4F2" transform="translate(135,83)"/>
<path d="M0 0 C5.75 -0.125 5.75 -0.125 8 1 C8 1.99 8 2.98 8 4 C8.66 4 9.32 4 10 4 C10 5.32 10 6.64 10 8 C7.11788698 8.96070434 5.30149956 9.10581883 2.3125 9.0625 C1.10013672 9.04896484 1.10013672 9.04896484 -0.13671875 9.03515625 C-1.05904297 9.01775391 -1.05904297 9.01775391 -2 9 C-3 6 -3 6 -1.5625 2.8125 C-1.046875 1.884375 -0.53125 0.95625 0 0 Z " fill="#3B9FC8" transform="translate(170,63)"/>
<path d="M0 0 C0.33 1.32 0.66 2.64 1 4 C2.65 4 4.3 4 6 4 C3.59310197 6.72675159 1.07528977 8.11966596 -2.1875 9.6875 C-3.53908203 10.34298828 -3.53908203 10.34298828 -4.91796875 11.01171875 C-5.60503906 11.33785156 -6.29210937 11.66398438 -7 12 C-7.33 11.01 -7.66 10.02 -8 9 C-6.0625 5.8125 -6.0625 5.8125 -4 3 C-4.763125 3.66 -5.52625 4.32 -6.3125 5 C-9 7 -9 7 -12 7 C-10.77887968 3.33663903 -9.13279518 2.64957986 -5.88671875 0.76953125 C-4 0 -4 0 0 0 Z " fill="#4193C3" transform="translate(191,130)"/>
<path d="M0 0 C2.3125 0.8125 2.3125 0.8125 4.3125 2.8125 C4.3125 5.25 4.3125 5.25 3.3125 7.8125 C0.25 9.625 0.25 9.625 -2.6875 10.8125 C-3.0175 8.5025 -3.3475 6.1925 -3.6875 3.8125 C-5.0075 3.4825 -6.3275 3.1525 -7.6875 2.8125 C-3.41631356 -0.23834746 -3.41631356 -0.23834746 0 0 Z " fill="#4185C4" transform="translate(159.6875,115.1875)"/>
<path d="M0 0 C0.66 0 1.32 0 2 0 C2 5.61 2 11.22 2 17 C1.67 16.34 1.34 15.68 1 15 C-0.98 15.99 -0.98 15.99 -3 17 C-3.40368295 10.54107286 -2.5915262 5.93891422 0 0 Z " fill="#1EB6CE" transform="translate(208,96)"/>
<path d="M0 0 C2.625 1.0625 2.625 1.0625 3.625 3.0625 C-0.14167915 2.54886193 -3.01620164 1.79980949 -6.375 0.0625 C-7.365 0.0625 -8.355 0.0625 -9.375 0.0625 C-9.230625 0.619375 -9.08625 1.17625 -8.9375 1.75 C-8.34730872 4.17634195 -7.851571 6.61156345 -7.375 9.0625 C-8.365 9.0625 -9.355 9.0625 -10.375 9.0625 C-10.045 8.4025 -9.715 7.7425 -9.375 7.0625 C-10.695 6.0725 -12.015 5.0825 -13.375 4.0625 C-13 1.625 -13 1.625 -12.375 -0.9375 C-8.49413008 -2.87793496 -4.00614662 -1.1128185 0 0 Z " fill="#5FA0C3" transform="translate(199.375,119.9375)"/>
<path d="M0 0 C0 0.99 0 1.98 0 3 C-0.66 3 -1.32 3 -2 3 C-2 3.66 -2 4.32 -2 5 C-2.99 5 -3.98 5 -5 5 C-5.33 6.32 -5.66 7.64 -6 9 C-7.32 8.67 -8.64 8.34 -10 8 C-10.33 11.3 -10.66 14.6 -11 18 C-11.33 18 -11.66 18 -12 18 C-12.60429052 13.85053843 -12.88072343 10.12052747 -12 6 C-8.8260728 2.86057201 -4.60570304 0 0 0 Z " fill="#63B4C9" transform="translate(169,90)"/>
<path d="M0 0 C2 2 2 2 2 5 C-3.44693314 5.09688221 -8.63904667 5.12862175 -14 4 C-14 3.67 -14 3.34 -14 3 C-12.88625 2.690625 -11.7725 2.38125 -10.625 2.0625 C-2.85714286 -0.21428571 -2.85714286 -0.21428571 0 0 Z " fill="#ECEDED" transform="translate(136,177)"/>
<path d="M0 0 C0.33 1.32 0.66 2.64 1 4 C-2.96 4 -6.92 4 -11 4 C-7.95262496 -2.09475008 -6.29420577 -1.04903429 0 0 Z " fill="#F0F0F1" transform="translate(79,178)"/>
<path d="M0 0 C-0.625 2.4375 -0.625 2.4375 -2 5 C-7.05263158 6.47368421 -7.05263158 6.47368421 -10 5 C-10 3.68 -10 2.36 -10 1 C-6.78548731 -0.60725635 -3.56387464 -0.05748185 0 0 Z " fill="#F1F0F1" transform="translate(138,186)"/>
<path d="M0 0 C2.64 1.32 5.28 2.64 8 4 C6 5 6 5 2 5 C2.33 5.66 2.66 6.32 3 7 C2.278125 6.938125 1.55625 6.87625 0.8125 6.8125 C-2.53909925 7.03593995 -4.21725908 8.19497887 -7 10 C-7.66 10 -8.32 10 -9 10 C-9 9.34 -9 8.68 -9 8 C-5.63316085 5.56839395 -4.26649636 5 0 5 C0 3.35 0 1.7 0 0 Z " fill="#DDEFF7" transform="translate(159,109)"/>
<path d="M0 0 C0 10.23 0 20.46 0 31 C-0.33 31 -0.66 31 -1 31 C-1.01458252 30.16227051 -1.02916504 29.32454102 -1.04418945 28.46142578 C-1.10520707 25.35621098 -1.17935065 22.25166883 -1.26245117 19.14697266 C-1.31209959 17.14117664 -1.34654164 15.13502313 -1.38085938 13.12890625 C-1.41630859 11.87207031 -1.45175781 10.61523438 -1.48828125 9.3203125 C-1.51446533 8.15773926 -1.54064941 6.99516602 -1.56762695 5.79736328 C-1.71031006 4.8742334 -1.85299316 3.95110352 -2 3 C-2.99 2.34 -3.98 1.68 -5 1 C-3 0 -3 0 0 0 Z " fill="#C5EFF3" transform="translate(203,90)"/>
<path d="M0 0 C0.73605469 0.45632812 1.47210938 0.91265625 2.23046875 1.3828125 C3.20628906 1.95773438 4.18210938 2.53265625 5.1875 3.125 C6.15042969 3.70507812 7.11335937 4.28515625 8.10546875 4.8828125 C10.9470377 6.33111224 10.9470377 6.33111224 13.67578125 5.1171875 C14.44277344 4.74851562 15.20976562 4.37984375 16 4 C16.99 4.33 17.98 4.66 19 5 C15.16526989 7.70686832 12.68723783 8.73525299 8 8 C5.10391902 6.63313357 2.38579007 5.14963319 0 3 C0 2.01 0 1.02 0 0 Z " fill="#39B3C6" transform="translate(163,97)"/>
<path d="M0 0 C0 0.66 0 1.32 0 2 C-0.804375 2.226875 -1.60875 2.45375 -2.4375 2.6875 C-6.25633355 4.09443868 -9.54894291 5.91825552 -13.046875 7.9765625 C-15 9 -15 9 -17 9 C-17 8.34 -17 7.68 -17 7 C-16.01 7 -15.02 7 -14 7 C-13.67 6.01 -13.34 5.02 -13 4 C-11.02 3.67 -9.04 3.34 -7 3 C-7 2.34 -7 1.68 -7 1 C-4.53721199 -0.231394 -2.7204945 -0.07159196 0 0 Z " fill="#D7F6F7" transform="translate(202,76)"/>
<path d="M0 0 C0.66 0.33 1.32 0.66 2 1 C1.125 5.875 1.125 5.875 0 7 C-4.76965667 7.43360515 -7.03656477 6.54066361 -11 4 C-13.69254991 3.29329272 -13.69254991 3.29329272 -16 3 C-16 2.67 -16 2.34 -16 2 C-12.77680586 1.85008399 -10.44390284 1.81594273 -7.4375 3.0625 C-4.52421683 4.18299353 -2.95495793 3.84427369 0 3 C0 2.01 0 1.02 0 0 Z " fill="#52A9C5" transform="translate(187,70)"/>
<path d="M0 0 C0 0.66 0 1.32 0 2 C-0.99 2 -1.98 2 -3 2 C-3.33 2.99 -3.66 3.98 -4 5 C-5.91344374 5.39111271 -7.83096553 5.76231167 -9.75 6.125 C-10.81734375 6.33382812 -11.8846875 6.54265625 -12.984375 6.7578125 C-16.13688351 7.01099324 -17.39959066 6.70415175 -20 5 C-13.42619543 3.96881497 -13.42619543 3.96881497 -10.4375 4.1875 C-6.2027424 3.86174942 -4.08023334 0 0 0 Z " fill="#4EC3C2" transform="translate(189,84)"/>
<path d="M0 0 C0.66 0.33 1.32 0.66 2 1 C0.6875 3 0.6875 3 -1 5 C-1.99 5 -2.98 5 -4 5 C-4 5.66 -4 6.32 -4 7 C-6.70879335 8.35439668 -9.00933268 8.06501451 -12 8 C-8.20182235 4.77730382 -4.42608146 2.25479622 0 0 Z " fill="#DCF1F5" transform="translate(167,75)"/>
<path d="M0 0 C0 0.66 0 1.32 0 2 C-0.99 2.33 -1.98 2.66 -3 3 C-3.33 3.66 -3.66 4.32 -4 5 C-5.70703125 6 -5.70703125 6 -7.8125 7 C-8.49957031 7.33 -9.18664062 7.66 -9.89453125 8 C-10.58933594 8.33 -11.28414062 8.66 -12 9 C-13.33471359 9.66389899 -14.66846683 10.3297451 -16 11 C-14.49402323 6.74561563 -11.83252242 5.40579386 -8 3.25 C-6.9275 2.63640625 -5.855 2.0228125 -4.75 1.390625 C-2 0 -2 0 0 0 Z " fill="#548ABC" transform="translate(152,75)"/>
<path d="M0 0 C3.12225008 0.90380923 4.63727016 1.34708628 6.25 4.25 C7.04221066 7.15477241 7.58404075 10.0189587 8 13 C6.125 13.625 6.125 13.625 4 14 C3.34 13.34 2.68 12.68 2 12 C2.99 12 3.98 12 5 12 C4.75873003 6.26133714 4.75873003 6.26133714 1.9375 1.5 C1.298125 1.005 0.65875 0.51 0 0 Z " fill="#4399C5" transform="translate(168,103)"/>
<path d="M0 0 C0 0.66 0 1.32 0 2 C-0.99 2 -1.98 2 -3 2 C-3 2.66 -3 3.32 -3 4 C-4.39077301 4.82113177 -5.78788893 5.63152495 -7.1875 6.4375 C-7.96480469 6.88996094 -8.74210938 7.34242187 -9.54296875 7.80859375 C-12.04931977 9.02391499 -14.25790365 9.57626575 -17 10 C-14.38772848 7.04185281 -11.33429693 5.28123892 -7.9375 3.3125 C-6.87402344 2.68988281 -5.81054688 2.06726563 -4.71484375 1.42578125 C-2 0 -2 0 0 0 Z " fill="#5A9BBF" transform="translate(169,65)"/>
<path d="M0 0 C-1.7015625 0.61875 -1.7015625 0.61875 -3.4375 1.25 C-5.46189491 2.23495877 -5.46189491 2.23495877 -7 4 C-7.93682286 8.00278859 -8.04512922 11.89968797 -8 16 C-8.33 16 -8.66 16 -9 16 C-9.24887295 13.89807303 -9.4734719 11.79326036 -9.6875 9.6875 C-9.81511719 8.51574219 -9.94273437 7.34398438 -10.07421875 6.13671875 C-10 3 -10 3 -8.64453125 1.12890625 C-5.46367122 -1.05462949 -3.66276309 -1.22092103 0 0 Z " fill="#5CC5CD" transform="translate(198,92)"/>
<path d="M0 0 C0.639375 0.33 1.27875 0.66 1.9375 1 C6.01236841 2.33056928 9.75190425 2.16659199 14 2 C14 2.66 14 3.32 14 4 C11.51957059 5.47275496 9.79181052 6.16372022 6.921875 5.5703125 C4.81075785 4.83369968 2.91099738 4.1653512 1 3 C0.67 2.01 0.34 1.02 0 0 Z " fill="#D9EFF6" transform="translate(165,144)"/>
<path d="M0 0 C-1 3 -1 3 -3.25 4.6875 C-6.1364252 6.06511203 -7.85173236 6.26985151 -11 6 C-3.8 0 -3.8 0 0 0 Z " fill="#D6EEF5" transform="translate(203,132)"/>
<path d="M0 0 C0 0.66 0 1.32 0 2 C-0.598125 2.268125 -1.19625 2.53625 -1.8125 2.8125 C-4.04267613 3.88022403 -4.04267613 3.88022403 -5.5625 5.625 C-7 7 -7 7 -10 7 C-8.60449526 2.81348579 -4.64858615 0 0 0 Z " fill="#5C99C2" transform="translate(189,130)"/>
<path d="M0 0 C0.8353125 1.1446875 0.8353125 1.1446875 1.6875 2.3125 C3.96679369 4.96140888 5.93599872 6.38288822 9 8 C6 9 6 9 2.8125 7.5625 C1.884375 7.046875 0.95625 6.53125 0 6 C0 4.02 0 2.04 0 0 Z " fill="#D7ECF6" transform="translate(135,123)"/>
<path d="M0 0 C0 0.99 0 1.98 0 3 C-0.66 3 -1.32 3 -2 3 C-2 3.66 -2 4.32 -2 5 C-4.31 5 -6.62 5 -9 5 C-2.87096774 0 -2.87096774 0 0 0 Z " fill="#54C6C2" transform="translate(169,90)"/>
<path d="M0 0 C1.98 0 3.96 0 6 0 C2.80009492 2.74277578 -0.00499382 4.6302836 -4 6 C-4 5.01 -4 4.02 -4 3 C-2.68 3 -1.36 3 0 3 C0 2.01 0 1.02 0 0 Z " fill="#519EC0" transform="translate(202,128)"/>
<path d="M0 0 C0 0.66 0 1.32 0 2 C-0.66 2 -1.32 2 -2 2 C-2 3.32 -2 4.64 -2 6 C-4.475 5.01 -4.475 5.01 -7 4 C-3.17391304 0 -3.17391304 0 0 0 Z " fill="#D0E8F4" transform="translate(162,124)"/>
<path d="M0 0 C4.75 0.75 4.75 0.75 7 3 C7 4.32 7 5.64 7 7 C6.34 7 5.68 7 5 7 C4.67 5.35 4.34 3.7 4 2 C2.35 2 0.7 2 -1 2 C-0.67 1.34 -0.34 0.68 0 0 Z " fill="#6595C1" transform="translate(157,115)"/>
<path d="M0 0 C0.8971875 0.309375 0.8971875 0.309375 1.8125 0.625 C0.52436658 1.46378455 -0.76813256 2.29586783 -2.0625 3.125 C-2.78179687 3.5890625 -3.50109375 4.053125 -4.2421875 4.53125 C-6.1875 5.625 -6.1875 5.625 -8.1875 5.625 C-8.1875 4.965 -8.1875 4.305 -8.1875 3.625 C-7.1975 3.625 -6.2075 3.625 -5.1875 3.625 C-5.1875 2.965 -5.1875 2.305 -5.1875 1.625 C-2.1875 -0.375 -2.1875 -0.375 0 0 Z " fill="#DBEDF6" transform="translate(151.1875,73.375)"/>
<path d="M0 0 C0 0.33 0 0.66 0 1 C-1.5778125 1.433125 -1.5778125 1.433125 -3.1875 1.875 C-6.22818711 2.77225193 -9.08712344 3.76423419 -12 5 C-12 4.34 -12 3.68 -12 3 C-11.34 3 -10.68 3 -10 3 C-10 2.34 -10 1.68 -10 1 C-6.78548731 -0.60725635 -3.56387464 -0.05748185 0 0 Z " fill="#E2F8FB" transform="translate(176,62)"/>
</svg>
